<svg version="1.1" id="Layer_1" xmlns="http://www.w3.org/2000/svg" xmlns:xlink="http://www.w3.org/1999/xlink" x="0px" y="0px" width="100%" viewBox="0 0 500 500" enable-background="new 0 0 500 500" xml:space="preserve">

<path fill="#FFAC1C" opacity="1.000000" stroke="none" d="
M267.641876,6.215891 
	C293.337616,8.199727 317.786530,13.581305 341.281921,23.046028 
	C396.923126,45.460133 438.988678,83.222130 467.457825,135.887177 
	C489.116455,175.953415 498.418915,219.109055 495.731995,264.464233 
	C492.014679,327.211670 467.675873,381.067230 423.030945,425.432678 
	C388.441284,459.805817 347.171722,482.634369 299.198608,491.189819 
	C207.843948,507.481964 129.887939,481.554749 67.176872,412.778198 
	C34.439655,376.874603 14.880175,334.107758 8.455675,286.004211 
	C-1.247337,213.352722 17.044857,148.165833 64.534149,92.030594 
	C103.733574,45.694496 153.990479,17.978649 213.880508,8.774406 
	C231.365311,6.087240 249.395081,6.946023 267.641876,6.215891 
M255.880386,142.641434 
	C245.468826,142.641434 235.057266,142.641434 223.931213,142.641434 
	C223.931213,195.921738 223.931213,248.549881 223.931213,301.178040 
	C223.494049,301.318604 223.056885,301.459198 222.619720,301.599762 
	C218.749481,296.079651 214.852692,290.577911 211.013214,285.036499 
	C178.970245,238.789597 146.948029,192.528305 114.857216,146.314636 
	C113.802925,144.796356 112.120415,142.689697 110.668129,142.638641 
	C101.225082,142.306717 91.764694,142.468231 82.333809,142.468231 
	C82.333809,214.941299 82.333809,286.837372 82.333809,358.734497 
	C93.238373,358.734497 103.824829,358.734497 115.006355,358.734497 
	C115.006355,305.794617 115.006355,253.122696 115.006355,200.450760 
	C115.408760,200.289886 115.811157,200.129013 116.213562,199.968124 
	C117.344452,201.452225 118.534126,202.895508 119.597252,204.426666 
	C131.749146,221.928268 143.881607,239.443329 156.019516,256.954651 
	C178.683655,289.652130 201.330093,322.361908 224.065674,355.009613 
	C225.185364,356.617493 227.041809,358.761353 228.626816,358.823303 
	C237.890503,359.185425 247.175583,359.000916 256.872528,359.000916 
	C256.872528,357.175720 256.872528,355.882538 256.872528,354.589355 
	C256.872559,285.270752 256.873810,215.952179 256.861694,146.633591 
	C256.861481,145.477005 256.698578,144.320465 255.880386,142.641434 
M422.769531,266.503021 
	C422.553833,259.678253 422.597168,252.833206 422.064392,246.033295 
	C421.166931,234.578461 418.053711,223.781403 411.011566,214.453979 
	C400.304504,200.272232 385.384308,194.866852 368.271759,194.611847 
	C347.570099,194.303360 330.951843,201.753464 320.717255,220.706818 
	C320.242432,221.586060 319.395599,222.264435 317.682617,224.227570 
	C317.682617,214.218964 317.682617,205.693848 317.682617,197.223022 
	C307.114807,197.223022 297.226898,197.223022 287.447937,197.223022 
	C287.447937,251.340576 287.447937,305.064056 287.447937,358.672607 
	C298.056244,358.672607 308.304108,358.672607 318.862549,358.672607 
	C318.862549,356.536407 318.862579,354.729706 318.862579,352.923035 
	C318.862610,323.762115 318.813232,294.601044 318.911560,265.440430 
	C318.927765,260.634460 319.041443,255.710602 320.059052,251.048340 
	C323.104187,237.096542 331.236176,227.338852 345.355194,223.661560 
	C358.461395,220.248077 370.978210,221.476212 381.098999,231.500153 
	C389.206818,239.530365 391.021545,250.029785 391.022522,260.969696 
	C391.025330,291.796936 391.024658,322.624207 391.025299,353.451447 
	C391.025360,355.214722 391.025299,356.977997 391.025299,358.694397 
	C401.905457,358.694397 412.147400,358.694397 422.769470,358.694397 
	C422.769470,328.090942 422.769470,297.796448 422.769531,266.503021 
z" data-index="1" style="opacity: 1;"></path>
<path fill="#030200" opacity="1.000000" stroke="none" d="
M256.246002,142.902664 
	C256.698578,144.320465 256.861481,145.477005 256.861694,146.633591 
	C256.873810,215.952179 256.872559,285.270752 256.872528,354.589355 
	C256.872528,355.882538 256.872528,357.175720 256.872528,359.000916 
	C247.175583,359.000916 237.890503,359.185425 228.626816,358.823303 
	C227.041809,358.761353 225.185364,356.617493 224.065674,355.009613 
	C201.330093,322.361908 178.683655,289.652130 156.019516,256.954651 
	C143.881607,239.443329 131.749146,221.928268 119.597252,204.426666 
	C118.534126,202.895508 117.344452,201.452225 116.213562,199.968124 
	C115.811157,200.129013 115.408760,200.289886 115.006355,200.450760 
	C115.006355,253.122696 115.006355,305.794617 115.006355,358.734497 
	C103.824829,358.734497 93.238373,358.734497 82.333809,358.734497 
	C82.333809,286.837372 82.333809,214.941299 82.333809,142.468231 
	C91.764694,142.468231 101.225082,142.306717 110.668129,142.638641 
	C112.120415,142.689697 113.802925,144.796356 114.857216,146.314636 
	C146.948029,192.528305 178.970245,238.789597 211.013214,285.036499 
	C214.852692,290.577911 218.749481,296.079651 222.619720,301.599762 
	C223.056885,301.459198 223.494049,301.318604 223.931213,301.178040 
	C223.931213,248.549881 223.931213,195.921738 223.931213,142.641434 
	C235.057266,142.641434 245.468826,142.641434 256.246002,142.902664 
z" data-index="2"></path>
<path fill="#030200" opacity="1.000000" stroke="none" d="
M422.769501,267.002502 
	C422.769470,297.796448 422.769470,328.090942 422.769470,358.694397 
	C412.147400,358.694397 401.905457,358.694397 391.025299,358.694397 
	C391.025299,356.977997 391.025360,355.214722 391.025299,353.451447 
	C391.024658,322.624207 391.025330,291.796936 391.022522,260.969696 
	C391.021545,250.029785 389.206818,239.530365 381.098999,231.500153 
	C370.978210,221.476212 358.461395,220.248077 345.355194,223.661560 
	C331.236176,227.338852 323.104187,237.096542 320.059052,251.048340 
	C319.041443,255.710602 318.927765,260.634460 318.911560,265.440430 
	C318.813232,294.601044 318.862610,323.762115 318.862579,352.923035 
	C318.862579,354.729706 318.862549,356.536407 318.862549,358.672607 
	C308.304108,358.672607 298.056244,358.672607 287.447937,358.672607 
	C287.447937,305.064056 287.447937,251.340576 287.447937,197.223022 
	C297.226898,197.223022 307.114807,197.223022 317.682617,197.223022 
	C317.682617,205.693848 317.682617,214.218964 317.682617,224.227570 
	C319.395599,222.264435 320.242432,221.586060 320.717255,220.706818 
	C330.951843,201.753464 347.570099,194.303360 368.271759,194.611847 
	C385.384308,194.866852 400.304504,200.272232 411.011566,214.453979 
	C418.053711,223.781403 421.166931,234.578461 422.064392,246.033295 
	C422.597168,252.833206 422.553833,259.678253 422.769501,267.002502 
z" data-index="3"></path>
</svg>